<?xml version="1.0" encoding="iso-8859-1"?>
<!-- Generator: Adobe Illustrator 16.0.4, SVG Export Plug-In . SVG Version: 6.00 Build 0)  -->
<!DOCTYPE svg PUBLIC "-//W3C//DTD SVG 1.1//EN" "http://www.w3.org/Graphics/SVG/1.1/DTD/svg11.dtd">
<svg version="1.1" xmlns="http://www.w3.org/2000/svg" xmlns:xlink="http://www.w3.org/1999/xlink" x="0px" y="0px" width="70px"
	 height="92px" viewBox="0 0 70 92" style="enable-background:new 0 0 70 92;" xml:space="preserve">
<g id="Database">
	<g>
		<path id="XMLID_17_" style="fill:#D7D4D3;" d="M70,16.071C70,5.521,52.393,0,35,0S0,5.521,0,16.071
			c0,0.089,0.011,0.174,0.014,0.263C0.012,16.38,0,16.424,0,16.47v59.858C0,86.617,17.607,92,35,92s35-5.383,35-15.672V16.47
			c0-0.046-0.012-0.09-0.014-0.136C69.988,16.246,70,16.16,70,16.071z M62,46.399c0,2.226-9.461,7.672-27,7.672S8,48.625,8,46.399
			V26.661c7,3.62,16.91,5.481,27,5.481s20-1.861,27-5.481V46.399z M35,8c17.814,0,27,5.658,27,8.071s-9.186,8.07-27,8.07
			s-27-5.657-27-8.07S17.186,8,35,8z M35,84c-17.539,0-27-5.445-27-7.672V56.726c7,3.53,16.91,5.347,27,5.347s20-1.815,27-5.347
			v19.604C62,78.555,52.539,84,35,84z M52,42.934V38.02c0-1.933,1.566-3.5,3.5-3.5s3.5,1.567,3.5,3.5v4.914
			c0,1.934-1.566,3.5-3.5,3.5S52,44.867,52,42.934z"/>
	</g>
</g>
<g id="Layer_1">
</g>
</svg>
