<?xml version="1.0" encoding="iso-8859-1"?>
<!-- Generator: Adobe Illustrator 16.0.4, SVG Export Plug-In . SVG Version: 6.00 Build 0)  -->
<!DOCTYPE svg PUBLIC "-//W3C//DTD SVG 1.1//EN" "http://www.w3.org/Graphics/SVG/1.1/DTD/svg11.dtd">
<svg version="1.1" xmlns="http://www.w3.org/2000/svg" xmlns:xlink="http://www.w3.org/1999/xlink" x="0px" y="0px" width="88px"
	 height="84px" viewBox="0 0 88 84" style="enable-background:new 0 0 88 84;" xml:space="preserve">
<g id="Favorites">
	<g>
		<path id="XMLID_310_" style="fill:#D7D4D3;" d="M68.721,84c-0.756,0-1.512-0.213-2.176-0.643L44,68.75L21.454,83.357
			c-1.397,0.904-3.209,0.85-4.549-0.14c-1.34-0.987-1.928-2.703-1.476-4.305l7.059-25.02l-21.07-17.81
			c-1.242-1.05-1.725-2.748-1.221-4.294s1.894-2.634,3.516-2.75l25.274-1.818L40.362,2.337C41.013,0.913,42.435,0,44,0
			c1.566,0,2.988,0.913,3.639,2.337l11.374,24.885l25.274,1.818c1.621,0.117,3.012,1.204,3.517,2.75
			c0.504,1.546,0.021,3.244-1.222,4.294l-21.07,17.812l7.06,25.019c0.451,1.602-0.136,3.316-1.477,4.305
			C70.392,83.738,69.558,84,68.721,84z M44,59.983c0.757,0,1.514,0.214,2.174,0.644l15.814,10.245L57.112,53.59
			c-0.426-1.51,0.07-3.129,1.268-4.141l15.538-13.135L56.073,35.03c-1.457-0.105-2.742-0.997-3.351-2.327L44,13.622l-8.722,19.083
			c-0.608,1.33-1.894,2.222-3.352,2.327l-17.844,1.284L29.62,49.449c1.198,1.012,1.693,2.631,1.269,4.141l-4.876,17.282
			l15.813-10.245C42.487,60.197,43.243,59.983,44,59.983z"/>
	</g>
</g>
<g id="Layer_1">
</g>
</svg>
