<?xml version="1.0" encoding="utf-8"?>
<!-- Generator: Adobe Illustrator 16.0.4, SVG Export Plug-In . SVG Version: 6.00 Build 0)  -->
<!DOCTYPE svg PUBLIC "-//W3C//DTD SVG 1.1//EN" "http://www.w3.org/Graphics/SVG/1.1/DTD/svg11.dtd">
<svg version="1.1" id="Layer_1" xmlns="http://www.w3.org/2000/svg" xmlns:xlink="http://www.w3.org/1999/xlink" x="0px" y="0px"
	 width="92px" height="86px" viewBox="0 0 92 86" enable-background="new 0 0 92 86" xml:space="preserve">
<path id="XMLID_310_" fill="#362222" d="M70.72,85c-0.755,0-1.511-0.213-2.175-0.643L46,69.75L23.454,84.357
	c-1.398,0.905-3.209,0.85-4.549-0.139c-1.34-0.988-1.928-2.703-1.476-4.305l7.059-25.019L3.418,37.084
	c-1.242-1.05-1.725-2.748-1.221-4.294s1.894-2.634,3.516-2.75l25.274-1.818L42.362,3.337C43.013,1.913,44.435,1,46,1
	c1.565,0,2.987,0.913,3.638,2.337l11.374,24.885l25.275,1.818c1.621,0.117,3.012,1.204,3.516,2.75s0.021,3.244-1.221,4.294
	L67.511,54.896l7.06,25.019c0.451,1.602-0.136,3.316-1.477,4.305C72.391,84.738,71.557,85,70.72,85z M46,60.983
	c0.757,0,1.513,0.214,2.174,0.644l15.814,10.245L59.112,54.59c-0.426-1.51,0.07-3.129,1.268-4.141l15.538-13.135l-17.845-1.284
	c-1.457-0.105-2.742-0.997-3.351-2.327L46,14.622l-8.722,19.083c-0.608,1.33-1.893,2.222-3.351,2.327l-17.844,1.284L31.62,50.449
	c1.198,1.012,1.693,2.631,1.268,4.141l-4.876,17.282l15.814-10.245C44.487,61.197,45.243,60.983,46,60.983z"/>
</svg>
