<?xml version="1.0" encoding="utf-8"?>
<!-- Generator: Adobe Illustrator 16.0.4, SVG Export Plug-In . SVG Version: 6.00 Build 0)  -->
<!DOCTYPE svg PUBLIC "-//W3C//DTD SVG 1.1//EN" "http://www.w3.org/Graphics/SVG/1.1/DTD/svg11.dtd">
<svg version="1.1" id="Layer_1" xmlns="http://www.w3.org/2000/svg" xmlns:xlink="http://www.w3.org/1999/xlink" x="0px" y="0px"
	 width="92px" height="68px" viewBox="0 0 92 68" enable-background="new 0 0 92 68" xml:space="preserve">
<path id="XMLID_1683_" fill="#362222" d="M90.912,19.221L73.991,1.257C73.235,0.455,72.182,0,71.08,0H20.92
	c-1.103,0-2.156,0.455-2.912,1.257L1.088,19.221c-1.482,1.574-1.446,4.041,0.082,5.57l42,42.036C43.92,67.578,44.938,68,46,68
	c1.061,0,2.08-0.422,2.83-1.173L90.83,24.791C92.357,23.262,92.395,20.795,90.912,19.221z M27.402,25l7.368,21.638L13.151,25H27.402
	z M49.382,8l6.444,10H36.174l6.444-10H49.382z M46,58.341l-0.013-0.245L34.796,25h22.407l-11.19,33.096L46,58.341z M64.598,25
	h14.251L57.229,46.638L64.598,25z M79.208,18H64.047L57.603,8h11.749L79.208,18z M22.648,8h11.749l-6.444,10H12.792L22.648,8z"/>
</svg>
