<?xml version="1.0" encoding="utf-8"?>
<!-- Generator: Adobe Illustrator 16.0.4, SVG Export Plug-In . SVG Version: 6.00 Build 0)  -->
<!DOCTYPE svg PUBLIC "-//W3C//DTD SVG 1.1//EN" "http://www.w3.org/Graphics/SVG/1.1/DTD/svg11.dtd">
<svg version="1.1" id="Layer_1" xmlns="http://www.w3.org/2000/svg" xmlns:xlink="http://www.w3.org/1999/xlink" x="0px" y="0px"
	 width="92px" height="86px" viewBox="0 0 92 86" enable-background="new 0 0 92 86" xml:space="preserve">
<path id="XMLID_1253_" fill="#282828" d="M46,54.094c14.846,0,26.926-12.134,26.926-27.049C72.926,12.133,60.846,0,46,0
	C31.153,0,19.074,12.133,19.074,27.045C19.074,41.96,31.153,54.094,46,54.094z M46,8c10.436,0,18.926,8.543,18.926,19.045
	c0,10.504-8.49,19.049-18.926,19.049c-10.436,0-18.926-8.545-18.926-19.049C27.074,16.543,35.564,8,46,8z M58.465,56.74
	c-1.316-0.422-2.755-0.131-3.807,0.764L46,64.867l-8.658-7.363c-1.052-0.895-2.491-1.186-3.807-0.764C27.935,58.527,0,68.141,0,82
	c0,2.209,1.791,4,4,4h84c2.209,0,4-1.791,4-4C92,68.141,64.065,58.527,58.465,56.74z M10.1,78
	c4.411-4.668,14.962-9.867,23.779-12.939l9.53,8.104c1.494,1.271,3.688,1.271,5.183,0l9.53-8.104
	C66.938,68.133,77.489,73.332,81.901,78H10.1z"/>
</svg>
