<?xml version="1.0" encoding="iso-8859-1"?>
<!-- Generator: Adobe Illustrator 16.0.4, SVG Export Plug-In . SVG Version: 6.00 Build 0)  -->
<!DOCTYPE svg PUBLIC "-//W3C//DTD SVG 1.1//EN" "http://www.w3.org/Graphics/SVG/1.1/DTD/svg11.dtd">
<svg version="1.1" xmlns="http://www.w3.org/2000/svg" xmlns:xlink="http://www.w3.org/1999/xlink" x="0px" y="0px"
	 width="204.436px" height="88px" viewBox="0 0 204.436 88" style="enable-background:new 0 0 204.436 88;" xml:space="preserve">
<g id="Logo">
	<g>
		<path id="XMLID_15_" style="fill:#D7D4D3;" d="M139.904,4c0-2.209-1.791-4-4-4h-60c-2.209,0-4,1.791-4,4v80c0,2.209,1.791,4,4,4
			h60c2.209,0,4-1.791,4-4V4z M131.904,80h-52V8h52V80z M88.425,63c0-2.209,1.791-4,4-4h26.962c2.209,0,4,1.791,4,4s-1.791,4-4,4
			H92.425C90.216,67,88.425,65.209,88.425,63z M89.041,44c0-2.209,1.791-4,4-4h26.346c2.209,0,4,1.791,4,4c0,2.209-1.791,4-4,4
			H93.041C90.832,48,89.041,46.209,89.041,44z M89.041,25c0-2.209,1.791-4,4-4h26.346c2.209,0,4,1.791,4,4s-1.791,4-4,4H93.041
			C90.832,29,89.041,27.208,89.041,25z"/>
		<path id="XMLID_14_" style="fill:#D7D4D3;" d="M58.536,31.11l-6.814,21.341c-0.48,1.496-1.874,2.494-3.468,2.494h-26.34
			c-1.512,0-2.982-0.928-3.509-2.32L8.37,25.885H2.55C1.142,25.885,0,24.745,0,23.36c0-1.387,1.142-2.527,2.55-2.527h7.582
			c1.06,0,2.018,0.723,2.392,1.698l10.407,27.362h24.248l5.45-17.057H22.574c-1.408,0-2.55-1.142-2.55-2.527
			c0-1.385,1.142-2.525,2.55-2.525h33.529c0.812,0,1.577,0.426,2.058,1.069C58.639,29.497,58.779,30.347,58.536,31.11z
			 M23.213,58.32c-1.09,0-2.161,0.432-2.933,1.189c-0.771,0.76-1.212,1.814-1.212,2.889c0,1.072,0.441,2.125,1.212,2.885
			c0.771,0.758,1.842,1.191,2.933,1.191c1.091,0,2.155-0.434,2.926-1.191c0.772-0.76,1.218-1.812,1.218-2.885
			c0-1.074-0.446-2.129-1.218-2.889C25.368,58.752,24.303,58.32,23.213,58.32z M46.093,58.32c-1.097,0-2.161,0.432-2.933,1.189
			c-0.772,0.76-1.212,1.814-1.212,2.889c0,1.072,0.44,2.125,1.212,2.885c0.771,0.758,1.836,1.191,2.933,1.191
			c1.09,0,2.155-0.434,2.926-1.191c0.772-0.76,1.218-1.812,1.218-2.885c0-1.074-0.446-2.129-1.218-2.889
			C48.248,58.752,47.184,58.32,46.093,58.32z"/>
		<path id="XMLID_13_" style="fill:#D7D4D3;" d="M199.327,62.764c0.868,0.85,0.868,2.227-0.001,3.072
			c-0.436,0.424-1.004,0.637-1.574,0.637c-0.568,0-1.139-0.213-1.574-0.637l-17.687-17.262l-17.435,17.25
			c-0.436,0.432-1.01,0.646-1.584,0.646c-0.564,0-1.13-0.207-1.563-0.625c-0.875-0.842-0.886-2.217-0.022-3.07L175.343,45.5
			l-2.968-2.895l-0.473,0.461c-1.418,1.383-3.301,2.145-5.305,2.145c-2.006,0-3.89-0.762-5.307-2.145l-7.391-7.148
			c-0.873-0.845-0.879-2.22-0.014-3.071c0.864-0.852,2.273-0.857,3.146-0.014l7.398,7.154c0.584,0.569,1.35,0.879,2.164,0.879
			s1.58-0.311,2.156-0.872l0.475-0.462l-9.521-9.294c-0.869-0.849-0.869-2.224,0-3.071c0.868-0.847,2.277-0.848,3.146,0l9.521,9.293
			l0.543-0.53c1.19-1.161,1.19-3.05,0-4.211l-7.392-7.146c-0.873-0.845-0.881-2.221-0.016-3.071
			c0.865-0.852,2.273-0.859,3.146-0.014l7.398,7.153c2.934,2.862,2.934,7.509,0.008,10.362l-0.543,0.529l2.945,2.875l19.613-19.411
			c0.417-0.413,0.984-0.646,1.576-0.646c0.574-0.011,1.164,0.228,1.582,0.637c4.937,4.815,4.117,11.601-2.135,17.704l-7.52,7.346
			c-0.868,0.848-2.275,0.85-3.146,0.002c-0.869-0.848-0.871-2.225-0.002-3.073l7.519-7.346c4.521-4.413,4.409-7.706,3.448-9.743
			L181.611,45.48L199.327,62.764z"/>
	</g>
</g>
<g id="Layer_1">
</g>
</svg>
