<?xml version="1.0" encoding="iso-8859-1"?>
<!-- Generator: Adobe Illustrator 16.0.4, SVG Export Plug-In . SVG Version: 6.00 Build 0)  -->
<!DOCTYPE svg PUBLIC "-//W3C//DTD SVG 1.1//EN" "http://www.w3.org/Graphics/SVG/1.1/DTD/svg11.dtd">
<svg version="1.1" xmlns="http://www.w3.org/2000/svg" xmlns:xlink="http://www.w3.org/1999/xlink" x="0px" y="0px" width="76px"
	 height="82px" viewBox="0 0 76 82" style="enable-background:new 0 0 76 82;" xml:space="preserve">
<g id="Logout">
	<g>
		<path id="XMLID_9_" style="fill:#D7D4D3;" d="M38.049,42.463c-2.209,0-4-1.792-4-4V4c0-2.209,1.791-4,4-4s4,1.791,4,4v34.462
			C42.049,40.671,40.258,42.463,38.049,42.463z M76,43.815c0-14.617-8.102-27.732-21.143-34.229
			c-1.976-0.983-4.377-0.18-5.363,1.797c-0.984,1.979-0.18,4.379,1.797,5.364C61.598,21.881,68,32.253,68,43.815
			C68,60.459,54.542,74,38.001,74C21.458,74,8,60.459,8,43.815c0-11.56,6.4-21.931,16.702-27.065
			c1.978-0.986,2.78-3.387,1.796-5.364c-0.986-1.978-3.389-2.78-5.364-1.796C8.098,16.088,0,29.202,0,43.815
			C0,64.871,17.047,82,37.999,82C58.953,82,76,64.871,76,43.815z"/>
	</g>
</g>
<g id="Layer_1">
</g>
</svg>
