<?xml version="1.0" encoding="utf-8"?>
<!-- Generator: Adobe Illustrator 16.0.4, SVG Export Plug-In . SVG Version: 6.00 Build 0)  -->
<!DOCTYPE svg PUBLIC "-//W3C//DTD SVG 1.1//EN" "http://www.w3.org/Graphics/SVG/1.1/DTD/svg11.dtd">
<svg version="1.1" id="Layer_1" xmlns="http://www.w3.org/2000/svg" xmlns:xlink="http://www.w3.org/1999/xlink" x="0px" y="0px"
	 width="86px" height="88px" viewBox="0 0 86 88" enable-background="new 0 0 86 88" xml:space="preserve">
<path id="XMLID_1102_" fill="#362222" d="M55.04,0C37.968,0,24.079,14.06,24.079,31.342c0,7.262,2.459,13.948,6.569,19.269
	L1.289,80.384c-1.735,1.759-1.715,4.593,0.044,6.327C2.204,87.571,3.339,88,4.474,88c1.155,0,2.31-0.445,3.186-1.333L37.07,56.841
	c5.071,3.673,11.273,5.844,17.97,5.844C72.111,62.685,86,48.624,86,31.342S72.111,0,55.04,0z M55.04,54.729
	c-12.687,0-23.008-10.492-23.008-23.388c0-12.896,10.321-23.387,23.008-23.387c12.686,0,23.006,10.491,23.006,23.387
	C78.046,44.238,67.726,54.729,55.04,54.729z"/>
</svg>
