<?xml version="1.0" encoding="iso-8859-1"?>
<!-- Generator: Adobe Illustrator 16.0.4, SVG Export Plug-In . SVG Version: 6.00 Build 0)  -->
<!DOCTYPE svg PUBLIC "-//W3C//DTD SVG 1.1//EN" "http://www.w3.org/Graphics/SVG/1.1/DTD/svg11.dtd">
<svg version="1.1" xmlns="http://www.w3.org/2000/svg" xmlns:xlink="http://www.w3.org/1999/xlink" x="0px" y="0px"
	 width="85.999px" height="88px" viewBox="0 0 85.999 88" style="enable-background:new 0 0 85.999 88;" xml:space="preserve">
<g id="Search">
	<g>
		<path id="XMLID_1102_" style="fill:#D7D4D3;" d="M55.039,0C37.966,0,24.078,14.06,24.078,31.342c0,7.262,2.459,13.948,6.569,19.27
			L1.288,80.384c-1.734,1.759-1.715,4.593,0.044,6.327C2.203,87.571,3.337,88,4.473,88c1.154,0,2.31-0.445,3.186-1.333l29.41-29.826
			c5.071,3.673,11.273,5.844,17.97,5.844c17.071,0,30.96-14.061,30.96-31.343S72.11,0,55.039,0z M55.039,54.729
			c-12.687,0-23.008-10.491-23.008-23.388c0-12.896,10.321-23.387,23.008-23.387c12.687,0,23.006,10.491,23.006,23.387
			C78.045,44.238,67.726,54.729,55.039,54.729z"/>
	</g>
</g>
<g id="Layer_1">
</g>
</svg>
