<?xml version="1.0" encoding="utf-8"?>
<!-- Generator: Adobe Illustrator 16.0.4, SVG Export Plug-In . SVG Version: 6.00 Build 0)  -->
<!DOCTYPE svg PUBLIC "-//W3C//DTD SVG 1.1//EN" "http://www.w3.org/Graphics/SVG/1.1/DTD/svg11.dtd">
<svg version="1.1" id="Layer_1" xmlns="http://www.w3.org/2000/svg" xmlns:xlink="http://www.w3.org/1999/xlink" x="0px" y="0px"
	 width="92px" height="72.25px" viewBox="0 0 92 72.25" enable-background="new 0 0 92 72.25" xml:space="preserve">
<path id="XMLID_1732_" fill="#3E3E3E" d="M91.816,16.269l-10.688,33.78C80.375,52.42,78.19,54,75.687,54H34.373
	c-2.37,0-4.678-1.469-5.504-3.674L13.128,8H4C1.791,8,0,6.193,0,4s1.791-4,4-4h11.891c1.663,0,3.164,1.144,3.753,2.688L35.968,46
	h38.034l8.548-27H35.408c-2.209,0-4-1.807-4-4s1.791-4,4-4H88c1.274,0,2.472,0.676,3.226,1.696
	C91.978,13.717,92.198,15.062,91.816,16.269z M36.41,59.34c-1.71,0-3.39,0.686-4.6,1.887c-1.21,1.201-1.9,2.87-1.9,4.568
	s0.69,3.366,1.9,4.568c1.21,1.201,2.89,1.887,4.6,1.887s3.38-0.686,4.59-1.887c1.21-1.202,1.91-2.87,1.91-4.568
	s-0.7-3.367-1.91-4.568S38.12,59.34,36.41,59.34z M72.299,59.34c-1.719,0-3.39,0.686-4.6,1.887s-1.9,2.87-1.9,4.568
	s0.69,3.366,1.9,4.568c1.21,1.201,2.881,1.887,4.6,1.887c1.711,0,3.381-0.686,4.59-1.887c1.21-1.202,1.91-2.87,1.91-4.568
	s-0.7-3.367-1.91-4.568C75.68,60.025,74.01,59.34,72.299,59.34z"/>
</svg>
