<?xml version="1.0" encoding="iso-8859-1"?>
<!-- Generator: Adobe Illustrator 16.0.4, SVG Export Plug-In . SVG Version: 6.00 Build 0)  -->
<!DOCTYPE svg PUBLIC "-//W3C//DTD SVG 1.1//EN" "http://www.w3.org/Graphics/SVG/1.1/DTD/svg11.dtd">
<svg version="1.1" xmlns="http://www.w3.org/2000/svg" xmlns:xlink="http://www.w3.org/1999/xlink" x="0px" y="0px"
	 width="91.999px" height="84px" viewBox="0 0 91.999 84" style="enable-background:new 0 0 91.999 84;" xml:space="preserve">
<g id="SilverWareIcon">
	<g>
		<path id="XMLID_7_" style="fill:#D7D4D3;" d="M82.808,77.172c1.562,1.562,1.562,4.095-0.001,5.656
			C82.025,83.609,81.001,84,79.979,84c-1.023,0-2.047-0.391-2.828-1.172L45.368,51.037L14.041,82.809
			C13.258,83.602,12.227,84,11.192,84c-1.014,0-2.029-0.383-2.809-1.152c-1.572-1.551-1.59-4.083-0.039-5.655L39.71,45.38
			l-5.331-5.332l-0.85,0.851c-2.547,2.547-5.932,3.948-9.533,3.948s-6.986-1.401-9.533-3.948L1.185,27.734
			c-1.569-1.556-1.581-4.087-0.026-5.656c1.556-1.569,4.088-1.581,5.656-0.025l13.294,13.174c1.049,1.05,2.426,1.619,3.89,1.619
			s2.841-0.569,3.876-1.604l0.851-0.853L11.615,17.275c-1.562-1.562-1.562-4.097,0-5.657c1.562-1.562,4.095-1.562,5.656,0.001
			l17.109,17.113l0.974-0.976c2.138-2.137,2.138-5.617,0-7.756L22.071,6.842c-1.569-1.555-1.581-4.088-0.026-5.657
			c1.556-1.568,4.088-1.581,5.656-0.025l13.295,13.175c5.269,5.271,5.269,13.825,0.013,19.082l-0.974,0.974l5.292,5.295
			L80.571,3.939c0.748-0.761,1.769-1.188,2.834-1.191c1.03-0.021,2.089,0.418,2.842,1.172c8.869,8.87,7.398,21.363-3.839,32.604
			L68.899,50.05c-1.561,1.563-4.092,1.565-5.656,0.003c-1.562-1.561-1.563-4.094-0.003-5.655l13.51-13.529
			c8.124-8.126,7.925-14.19,6.194-17.941L50.983,45.341L82.808,77.172z"/>
	</g>
</g>
<g id="Layer_1">
</g>
</svg>
