<?xml version="1.0" encoding="utf-8"?>
<!-- Generator: Adobe Illustrator 16.0.4, SVG Export Plug-In . SVG Version: 6.00 Build 0)  -->
<!DOCTYPE svg PUBLIC "-//W3C//DTD SVG 1.1//EN" "http://www.w3.org/Graphics/SVG/1.1/DTD/svg11.dtd">
<svg version="1.1" id="Layer_1" xmlns="http://www.w3.org/2000/svg" xmlns:xlink="http://www.w3.org/1999/xlink" x="0px" y="0px"
	 width="76px" height="82px" viewBox="0 0 76 82" enable-background="new 0 0 76 82" xml:space="preserve">
<path id="XMLID_132_" fill="#362222" d="M38.049,42.463c-2.209,0-4-1.792-4-4V4c0-2.209,1.791-4,4-4s4,1.791,4,4v34.462
	C42.049,40.671,40.258,42.463,38.049,42.463z M76,43.815c0-14.617-8.102-27.732-21.142-34.229c-1.976-0.983-4.378-0.18-5.364,1.797
	c-0.984,1.978-0.18,4.379,1.797,5.364C61.598,21.881,68,32.253,68,43.815C68,60.459,54.542,74,38.001,74
	C21.458,74,8,60.459,8,43.815c0-11.559,6.4-21.93,16.702-27.065c1.978-0.986,2.781-3.387,1.796-5.364
	c-0.986-1.978-3.389-2.781-5.364-1.796C8.098,16.088,0,29.202,0,43.815C0,64.871,17.047,82,37.999,82C58.953,82,76,64.871,76,43.815
	z"/>
</svg>
