<?xml version="1.0" encoding="utf-8"?>
<!-- Generator: Adobe Illustrator 16.0.4, SVG Export Plug-In . SVG Version: 6.00 Build 0)  -->
<!DOCTYPE svg PUBLIC "-//W3C//DTD SVG 1.1//EN" "http://www.w3.org/Graphics/SVG/1.1/DTD/svg11.dtd">
<svg version="1.1" id="Layer_1" xmlns="http://www.w3.org/2000/svg" xmlns:xlink="http://www.w3.org/1999/xlink" x="0px" y="0px"
	 width="204.441px" height="88px" viewBox="0 0 204.441 88" enable-background="new 0 0 204.441 88" xml:space="preserve">
<path id="XMLID_1960_" fill="#ADA8A9" d="M139.904,4c0-2.209-1.791-4-4-4h-60c-2.209,0-4,1.791-4,4v80c0,2.209,1.791,4,4,4h60
	c2.209,0,4-1.791,4-4V4z M131.904,80h-52V8h52V80z M88.425,63c0-2.209,1.791-4,4-4h26.961c2.209,0,4,1.791,4,4s-1.791,4-4,4H92.425
	C90.216,67,88.425,65.209,88.425,63z M89.041,44c0-2.209,1.791-4,4-4h26.345c2.209,0,4,1.791,4,4s-1.791,4-4,4H93.041
	C90.832,48,89.041,46.209,89.041,44z M89.041,25c0-2.209,1.791-4,4-4h26.345c2.209,0,4,1.791,4,4s-1.791,4-4,4H93.041
	C90.832,29,89.041,27.209,89.041,25z"/>
<path id="XMLID_1732_" opacity="0.8" fill="#BAB5B5" d="M58.536,31.11l-6.814,21.341c-0.479,1.497-1.874,2.494-3.468,2.494h-26.34
	c-1.513,0-2.982-0.928-3.51-2.32L8.37,25.886H2.55C1.142,25.886,0,24.745,0,23.36c0-1.386,1.142-2.527,2.55-2.527h7.582
	c1.06,0,2.018,0.723,2.392,1.698l10.407,27.361h24.248l5.45-17.057H22.574c-1.408,0-2.551-1.142-2.551-2.527
	c0-1.385,1.143-2.526,2.551-2.526h33.528c0.812,0,1.577,0.426,2.059,1.07C58.639,29.497,58.779,30.348,58.536,31.11z M23.213,58.32
	c-1.09,0-2.161,0.432-2.934,1.19c-0.771,0.759-1.212,1.814-1.212,2.888c0,1.072,0.441,2.125,1.212,2.886
	c0.771,0.758,1.843,1.19,2.934,1.19s2.155-0.434,2.926-1.19c0.772-0.761,1.218-1.813,1.218-2.886c0-1.073-0.445-2.129-1.218-2.888
	C25.368,58.752,24.303,58.32,23.213,58.32z M46.093,58.32c-1.097,0-2.161,0.432-2.933,1.19c-0.772,0.759-1.212,1.814-1.212,2.888
	c0,1.072,0.439,2.125,1.212,2.886c0.771,0.758,1.836,1.19,2.933,1.19c1.09,0,2.155-0.434,2.926-1.19
	c0.772-0.761,1.218-1.813,1.218-2.886c0-1.073-0.445-2.129-1.218-2.888C48.248,58.752,47.184,58.32,46.093,58.32z"/>
<path id="XMLID_1393_" opacity="0.8" fill="#BAB5B5" d="M199.327,62.764c0.868,0.85,0.868,2.227-0.001,3.072
	c-0.437,0.425-1.005,0.637-1.574,0.637s-1.14-0.212-1.574-0.637l-17.687-17.262l-17.435,17.251c-0.436,0.432-1.01,0.647-1.585,0.647
	c-0.563,0-1.129-0.209-1.562-0.627c-0.875-0.842-0.886-2.217-0.022-3.07L175.343,45.5l-2.968-2.895l-0.473,0.461
	c-1.419,1.383-3.302,2.145-5.306,2.145c-2.005,0-3.889-0.762-5.306-2.145l-7.391-7.148c-0.873-0.845-0.88-2.22-0.015-3.071
	c0.865-0.852,2.274-0.858,3.147-0.014l7.397,7.154c0.584,0.57,1.351,0.879,2.165,0.879s1.58-0.31,2.156-0.872l0.474-0.462
	l-9.521-9.294c-0.869-0.848-0.869-2.223,0-3.071c0.868-0.847,2.276-0.848,3.146,0l9.521,9.293l0.543-0.53
	c1.189-1.161,1.189-3.05,0-4.211l-7.393-7.146c-0.873-0.844-0.88-2.22-0.015-3.071c0.865-0.852,2.272-0.859,3.146-0.014l7.398,7.154
	c2.933,2.862,2.933,7.508,0.007,10.362l-0.542,0.529l2.945,2.875l19.613-19.411c0.417-0.413,0.983-0.645,1.576-0.646
	c0.574-0.011,1.163,0.227,1.582,0.636c4.937,4.816,4.117,11.601-2.136,17.704l-7.519,7.346c-0.868,0.849-2.276,0.85-3.147,0.002
	c-0.869-0.848-0.871-2.225-0.002-3.072l7.52-7.346c4.521-4.413,4.409-7.706,3.447-9.743L181.611,45.48L199.327,62.764z"/>
</svg>
