<?xml version="1.0" encoding="utf-8"?>
<!-- Generator: Adobe Illustrator 16.0.4, SVG Export Plug-In . SVG Version: 6.00 Build 0)  -->
<!DOCTYPE svg PUBLIC "-//W3C//DTD SVG 1.1//EN" "http://www.w3.org/Graphics/SVG/1.1/DTD/svg11.dtd">
<svg version="1.1" id="Layer_1" xmlns="http://www.w3.org/2000/svg" xmlns:xlink="http://www.w3.org/1999/xlink" x="0px" y="0px"
	 width="204.442px" height="88px" viewBox="0 0 204.442 88" enable-background="new 0 0 204.442 88" xml:space="preserve">
<path id="XMLID_1960_" fill="#362222" d="M139.904,4c0-2.209-1.791-4-4-4h-60c-2.209,0-4,1.791-4,4v80c0,2.209,1.791,4,4,4h60
	c2.209,0,4-1.791,4-4V4z M131.904,80h-52V8h52V80z M88.425,63c0-2.209,1.791-4,4-4h26.961c2.209,0,4,1.791,4,4s-1.791,4-4,4H92.425
	C90.216,67,88.425,65.209,88.425,63z M89.041,44c0-2.209,1.791-4,4-4h26.345c2.209,0,4,1.791,4,4s-1.791,4-4,4H93.041
	C90.832,48,89.041,46.209,89.041,44z M89.041,25c0-2.209,1.791-4,4-4h26.345c2.209,0,4,1.791,4,4s-1.791,4-4,4H93.041
	C90.832,29,89.041,27.209,89.041,25z"/>
<path id="XMLID_1732_" fill="#3F3F3F" d="M58.536,31.11l-6.814,21.341c-0.48,1.497-1.874,2.495-3.468,2.495H21.914
	c-1.512,0-2.982-0.928-3.509-2.321L8.37,25.886H2.55c-1.408,0-2.55-1.141-2.55-2.526c0-1.386,1.142-2.527,2.55-2.527h7.582
	c1.06,0,2.018,0.723,2.392,1.698l10.407,27.362h24.248l5.45-17.057H22.574c-1.408,0-2.55-1.142-2.55-2.527s1.142-2.526,2.55-2.526
	h33.529c0.812,0,1.577,0.426,2.058,1.07C58.639,29.497,58.779,30.348,58.536,31.11z M23.213,58.32c-1.09,0-2.161,0.432-2.933,1.191
	c-0.771,0.759-1.212,1.814-1.212,2.887s0.441,2.126,1.212,2.886c0.771,0.758,1.842,1.191,2.933,1.191s2.155-0.434,2.926-1.191
	c0.772-0.76,1.218-1.813,1.218-2.886s-0.446-2.128-1.218-2.887C25.368,58.752,24.303,58.32,23.213,58.32z M46.093,58.32
	c-1.097,0-2.161,0.432-2.933,1.191c-0.772,0.759-1.212,1.814-1.212,2.887s0.44,2.126,1.212,2.886
	c0.771,0.758,1.836,1.191,2.933,1.191c1.09,0,2.155-0.434,2.926-1.191c0.772-0.76,1.218-1.813,1.218-2.886s-0.446-2.128-1.218-2.887
	C48.248,58.752,47.184,58.32,46.093,58.32z"/>
<path id="XMLID_1393_" fill="#3F3F3F" d="M199.327,62.764c0.869,0.849,0.869,2.226-0.001,3.072
	c-0.436,0.425-1.004,0.637-1.574,0.637c-0.569,0-1.139-0.212-1.574-0.637l-17.687-17.262l-17.434,17.251
	c-0.436,0.432-1.01,0.647-1.585,0.647c-0.564,0-1.129-0.208-1.563-0.626c-0.875-0.842-0.885-2.217-0.022-3.071L175.343,45.5
	l-2.968-2.895l-0.472,0.461c-1.419,1.383-3.302,2.145-5.306,2.145c-2.005,0-3.889-0.762-5.306-2.145l-7.39-7.148
	c-0.873-0.845-0.88-2.22-0.015-3.071c0.865-0.852,2.274-0.858,3.147-0.014l7.398,7.154c0.584,0.57,1.35,0.879,2.165,0.879
	c0.814,0,1.58-0.31,2.156-0.872l0.474-0.462l-9.521-9.294c-0.869-0.848-0.869-2.223,0-3.071c0.868-0.847,2.277-0.848,3.146,0
	l9.521,9.293l0.543-0.53c1.19-1.161,1.19-3.05,0-4.211l-7.392-7.146c-0.873-0.844-0.88-2.22-0.015-3.071
	c0.865-0.852,2.273-0.859,3.147-0.014l7.398,7.154c2.933,2.862,2.933,7.508,0.007,10.362l-0.542,0.529l2.945,2.875l19.613-19.411
	c0.417-0.413,0.984-0.645,1.577-0.646c0.574-0.011,1.163,0.227,1.582,0.636c4.936,4.816,4.117,11.601-2.136,17.704l-7.519,7.346
	c-0.868,0.849-2.276,0.85-3.147,0.002c-0.869-0.848-0.871-2.225-0.002-3.072l7.519-7.346c4.521-4.413,4.41-7.706,3.448-9.743
	l-17.787,17.602L199.327,62.764z"/>
</svg>
