<?xml version="1.0" encoding="utf-8"?>
<!-- Generator: Adobe Illustrator 16.0.4, SVG Export Plug-In . SVG Version: 6.00 Build 0)  -->
<!DOCTYPE svg PUBLIC "-//W3C//DTD SVG 1.1//EN" "http://www.w3.org/Graphics/SVG/1.1/DTD/svg11.dtd">
<svg version="1.1" id="Layer_1" xmlns="http://www.w3.org/2000/svg" xmlns:xlink="http://www.w3.org/1999/xlink" x="0px" y="0px"
	 width="92px" height="92px" viewBox="0 0 92 92" enable-background="new 0 0 92 92" xml:space="preserve">
<path id="XMLID_160_" fill="#362222" d="M46.001,65.295c-10.631,0-19.279-8.647-19.279-19.278s8.648-19.279,19.279-19.279
	c10.63,0,19.277,8.648,19.277,19.279S56.631,65.295,46.001,65.295z M46.001,33.814c-6.729,0-12.202,5.474-12.202,12.202
	c0,6.728,5.474,12.202,12.202,12.202c6.728,0,12.2-5.475,12.2-12.202C58.201,39.288,52.729,33.814,46.001,33.814z M45.999,92h-0.545
	c-3.474,0-6.527-0.386-6.655-0.402c-1.585-0.203-2.838-1.443-3.056-3.026l-0.987-7.154c-2.195-0.696-4.318-1.597-6.348-2.69
	l-5.655,4.25c-1.274,0.957-3.03,0.945-4.29-0.028c-0.104-0.079-2.533-1.966-4.991-4.422l-0.385-0.385
	c-2.456-2.457-4.342-4.888-4.421-4.99c-0.979-1.265-0.986-3.026-0.021-4.301l4.368-5.767c-1.061-2.045-1.925-4.179-2.585-6.381
	l-7.012-0.994c-1.578-0.225-2.812-1.474-3.014-3.055C0.386,52.526,0,49.474,0,45.999v-0.544c0-3.474,0.386-6.528,0.402-6.656
	c0.203-1.586,1.444-2.839,3.028-3.056l7.173-0.985c0.696-2.189,1.594-4.306,2.685-6.331l-4.266-5.674
	c-0.957-1.274-0.944-3.03,0.029-4.291c0.079-0.103,1.966-2.533,4.422-4.99l0.385-0.385c2.457-2.456,4.888-4.342,4.99-4.421
	c1.265-0.978,3.028-0.986,4.303-0.02l5.78,4.384c2.037-1.057,4.166-1.92,6.362-2.58l0.997-7.034
	c0.225-1.578,1.475-2.811,3.055-3.013C39.474,0.386,42.527,0,46.001,0h0.545c3.474,0,6.527,0.386,6.655,0.402
	c1.586,0.203,2.839,1.445,3.057,3.03l0.982,7.183c2.188,0.693,4.303,1.588,6.326,2.677l5.681-4.27
	c1.273-0.958,3.029-0.946,4.29,0.029c0.104,0.079,2.534,1.965,4.99,4.422l0.386,0.385c2.456,2.458,4.343,4.89,4.421,4.991
	c0.979,1.266,0.986,3.03,0.019,4.304l-4.379,5.769c1.061,2.04,1.925,4.169,2.587,6.369l7.025,1.001
	c1.577,0.224,2.81,1.474,3.012,3.053C91.614,39.474,92,42.526,92,46.001v0.544c0,3.474-0.386,6.528-0.402,6.656
	c-0.203,1.586-1.445,2.839-3.03,3.057l-7.163,0.98c-0.694,2.191-1.592,4.311-2.686,6.338l4.259,5.673
	c0.956,1.273,0.944,3.028-0.03,4.288c-0.079,0.103-1.964,2.534-4.421,4.99l-0.385,0.386c-2.457,2.456-4.889,4.343-4.991,4.421
	c-1.265,0.979-3.029,0.986-4.303,0.02l-5.783-4.39c-2.037,1.055-4.162,1.916-6.357,2.575l-0.999,7.045
	c-0.224,1.578-1.474,2.812-3.054,3.014C52.526,91.614,49.473,92,45.999,92z M42.369,84.818c0.91,0.059,1.979,0.104,3.085,0.104
	h0.545c1.115,0,2.187-0.046,3.096-0.104l0.935-6.594c0.206-1.451,1.285-2.625,2.713-2.953c3.104-0.711,6.061-1.908,8.791-3.558
	c0.805-0.486,1.77-0.63,2.683-0.405c0.522,0.13,1.002,0.375,1.408,0.713l5.259,3.992c0.685-0.602,1.473-1.323,2.254-2.105
	l0.385-0.385c0.787-0.786,1.512-1.578,2.116-2.266l-3.986-5.309c-0.88-1.172-0.946-2.765-0.167-4.006
	c1.656-2.637,2.882-5.495,3.646-8.496c0.258-1.501,1.455-2.692,2.998-2.904l6.689-0.915c0.059-0.909,0.104-1.977,0.104-3.083v-0.544
	c0-1.111-0.047-2.185-0.105-3.098l-6.572-0.936c-1.449-0.207-2.622-1.284-2.95-2.71c-0.705-3.067-1.886-5.993-3.51-8.695
	c-0.151-0.232-0.276-0.484-0.37-0.753c-0.395-1.121-0.202-2.367,0.517-3.314l4.082-5.377c-0.602-0.685-1.323-1.472-2.105-2.253
	l-0.385-0.385c-0.789-0.789-1.579-1.514-2.264-2.116l-5.323,4.001c-1.258,0.945-2.972,0.939-4.215,0.028
	c-2.646-1.626-5.511-2.826-8.518-3.565c-1.409-0.346-2.464-1.518-2.661-2.956l-0.915-6.689c-0.909-0.059-1.977-0.104-3.082-0.104
	h-0.545c-1.111,0-2.184,0.047-3.097,0.105l-0.935,6.593c-0.221,1.561-1.439,2.767-2.964,3.001c-3.012,0.718-5.884,1.895-8.541,3.503
	c-0.818,0.495-1.803,0.638-2.728,0.395c-0.518-0.135-0.991-0.384-1.392-0.723l-5.229-3.966c-0.684,0.602-1.472,1.324-2.254,2.106
	l-0.385,0.385c-0.789,0.789-1.514,1.579-2.115,2.263l4.001,5.324c0.867,1.154,0.946,2.719,0.201,3.955
	c-0.063,0.104-0.132,0.205-0.203,0.301c-1.616,2.632-2.81,5.482-3.547,8.476c-0.348,1.408-1.519,2.462-2.955,2.659l-6.679,0.917
	c-0.059,0.909-0.105,1.978-0.105,3.083v0.544c0,1.111,0.048,2.184,0.106,3.097l6.593,0.934c1.562,0.222,2.788,1.449,3.008,3.012
	c0.006,0.044,0.012,0.088,0.016,0.131c0.721,2.952,1.885,5.768,3.463,8.377c0.537,0.889,0.657,1.969,0.327,2.955
	c-0.145,0.432-0.37,0.826-0.657,1.166l-3.948,5.211c0.603,0.686,1.325,1.474,2.108,2.256l0.385,0.385
	c0.789,0.789,1.579,1.514,2.263,2.115l5.324-4.001c1.343-1.01,3.17-0.919,4.402,0.118c2.591,1.568,5.39,2.728,8.324,3.45
	c1.407,0.347,2.461,1.517,2.659,2.952L42.369,84.818z"/>
</svg>
