<?xml version="1.0" encoding="utf-8"?>
<!-- Generator: Adobe Illustrator 16.0.4, SVG Export Plug-In . SVG Version: 6.00 Build 0)  -->
<!DOCTYPE svg PUBLIC "-//W3C//DTD SVG 1.1//EN" "http://www.w3.org/Graphics/SVG/1.1/DTD/svg11.dtd">
<svg version="1.1" id="Layer_1" xmlns="http://www.w3.org/2000/svg" xmlns:xlink="http://www.w3.org/1999/xlink" x="0px" y="0px"
	 width="92px" height="84px" viewBox="0 0 92 84" enable-background="new 0 0 92 84" xml:space="preserve">
<path id="XMLID_1393_" fill="#3E3E3E" d="M82.808,77.172c1.562,1.562,1.562,4.095-0.001,5.656C82.026,83.609,81.002,84,79.979,84
	s-2.047-0.391-2.828-1.172L45.368,51.037L14.041,82.809C13.259,83.602,12.227,84,11.193,84c-1.014,0-2.029-0.383-2.809-1.152
	c-1.572-1.551-1.59-4.083-0.039-5.656l31.366-31.812l-5.331-5.332l-0.85,0.85c-2.547,2.547-5.932,3.949-9.533,3.949
	s-6.986-1.402-9.533-3.949L1.185,27.734c-1.569-1.555-1.581-4.087-0.026-5.656c1.556-1.569,4.088-1.581,5.656-0.025l13.294,13.174
	c1.049,1.049,2.426,1.619,3.89,1.619s2.841-0.57,3.876-1.605l0.851-0.852L11.615,17.275c-1.562-1.562-1.562-4.096,0-5.657
	s4.095-1.562,5.656,0.001L34.38,28.732l0.974-0.975c2.138-2.137,2.138-5.617,0-7.756L22.072,6.842
	c-1.569-1.555-1.581-4.088-0.026-5.657c1.556-1.569,4.088-1.581,5.656-0.026l13.295,13.175c5.269,5.271,5.269,13.825,0.013,19.082
	l-0.974,0.974l5.292,5.295L80.572,3.939c0.748-0.76,1.769-1.188,2.834-1.191c1.03-0.02,2.089,0.418,2.842,1.172
	c8.869,8.87,7.398,21.363-3.839,32.603L68.9,50.05c-1.56,1.563-4.092,1.565-5.656,0.003c-1.562-1.561-1.564-4.094-0.003-5.656
	l13.51-13.529c8.124-8.126,7.925-14.19,6.194-17.941L50.984,45.341L82.808,77.172z"/>
</svg>
